<mxfile host="app.diagrams.net" agent="Mozilla/5.0 (Windows NT 10.0; Win64; x64) AppleWebKit/537.36 (KHTML, like Gecko) Chrome/137.0.0.0 Safari/537.36" version="27.1.4" pages="2">
  <diagram name="Page-1" id="aDmO0VfyJEEosGFs8v3M">
    <mxGraphModel dx="736" dy="876" grid="1" gridSize="10" guides="1" tooltips="1" connect="1" arrows="1" fold="1" page="1" pageScale="1" pageWidth="850" pageHeight="1100" math="0" shadow="0">
      <root>
        <mxCell id="0" />
        <mxCell id="1" parent="0" />
        <mxCell id="UCRHAYrMpuW72DWXuycs-1" value="CommenterInfo" style="swimlane;fontStyle=1;align=center;verticalAlign=top;childLayout=stackLayout;horizontal=1;startSize=26;horizontalStack=0;resizeParent=1;resizeParentMax=0;resizeLast=0;collapsible=1;marginBottom=0;whiteSpace=wrap;html=1;" vertex="1" parent="1">
          <mxGeometry x="470" y="130" width="160" height="130" as="geometry" />
        </mxCell>
        <mxCell id="UCRHAYrMpuW72DWXuycs-2" value="- authorName: string" style="text;strokeColor=none;fillColor=none;align=left;verticalAlign=top;spacingLeft=4;spacingRight=4;overflow=hidden;rotatable=0;points=[[0,0.5],[1,0.5]];portConstraint=eastwest;whiteSpace=wrap;html=1;" vertex="1" parent="UCRHAYrMpuW72DWXuycs-1">
          <mxGeometry y="26" width="160" height="26" as="geometry" />
        </mxCell>
        <mxCell id="UCRHAYrMpuW72DWXuycs-4" value="- avatarUrl:string" style="text;strokeColor=none;fillColor=none;align=left;verticalAlign=top;spacingLeft=4;spacingRight=4;overflow=hidden;rotatable=0;points=[[0,0.5],[1,0.5]];portConstraint=eastwest;whiteSpace=wrap;html=1;" vertex="1" parent="UCRHAYrMpuW72DWXuycs-1">
          <mxGeometry y="52" width="160" height="26" as="geometry" />
        </mxCell>
        <mxCell id="UCRHAYrMpuW72DWXuycs-6" value="- profileUrl: string&lt;div&gt;&lt;br&gt;&lt;/div&gt;" style="text;strokeColor=none;fillColor=none;align=left;verticalAlign=top;spacingLeft=4;spacingRight=4;overflow=hidden;rotatable=0;points=[[0,0.5],[1,0.5]];portConstraint=eastwest;whiteSpace=wrap;html=1;" vertex="1" parent="UCRHAYrMpuW72DWXuycs-1">
          <mxGeometry y="78" width="160" height="26" as="geometry" />
        </mxCell>
        <mxCell id="UCRHAYrMpuW72DWXuycs-7" value="+ key(): string" style="text;strokeColor=none;fillColor=none;align=left;verticalAlign=top;spacingLeft=4;spacingRight=4;overflow=hidden;rotatable=0;points=[[0,0.5],[1,0.5]];portConstraint=eastwest;whiteSpace=wrap;html=1;" vertex="1" parent="UCRHAYrMpuW72DWXuycs-1">
          <mxGeometry y="104" width="160" height="26" as="geometry" />
        </mxCell>
        <mxCell id="UCRHAYrMpuW72DWXuycs-8" value="" style="endArrow=none;html=1;rounded=0;fontSize=12;startSize=8;endSize=8;curved=1;exitX=-0.002;exitY=0.025;exitDx=0;exitDy=0;exitPerimeter=0;" edge="1" parent="UCRHAYrMpuW72DWXuycs-1" source="UCRHAYrMpuW72DWXuycs-7">
          <mxGeometry width="50" height="50" relative="1" as="geometry">
            <mxPoint x="-10" y="105" as="sourcePoint" />
            <mxPoint x="160" y="105" as="targetPoint" />
          </mxGeometry>
        </mxCell>
        <mxCell id="UCRHAYrMpuW72DWXuycs-10" value="CommentContent" style="swimlane;fontStyle=1;align=center;verticalAlign=top;childLayout=stackLayout;horizontal=1;startSize=26;horizontalStack=0;resizeParent=1;resizeParentMax=0;resizeLast=0;collapsible=1;marginBottom=0;whiteSpace=wrap;html=1;" vertex="1" parent="1">
          <mxGeometry x="480" y="320" width="160" height="52" as="geometry" />
        </mxCell>
        <mxCell id="UCRHAYrMpuW72DWXuycs-11" value="- text: string" style="text;strokeColor=none;fillColor=none;align=left;verticalAlign=top;spacingLeft=4;spacingRight=4;overflow=hidden;rotatable=0;points=[[0,0.5],[1,0.5]];portConstraint=eastwest;whiteSpace=wrap;html=1;" vertex="1" parent="UCRHAYrMpuW72DWXuycs-10">
          <mxGeometry y="26" width="160" height="26" as="geometry" />
        </mxCell>
        <mxCell id="UCRHAYrMpuW72DWXuycs-14" value="Comment" style="swimlane;fontStyle=1;align=center;verticalAlign=top;childLayout=stackLayout;horizontal=1;startSize=26;horizontalStack=0;resizeParent=1;resizeParentMax=0;resizeLast=0;collapsible=1;marginBottom=0;whiteSpace=wrap;html=1;" vertex="1" parent="1">
          <mxGeometry x="180" y="260" width="220" height="166" as="geometry" />
        </mxCell>
        <mxCell id="UCRHAYrMpuW72DWXuycs-15" value="- commenter: CommenterInfo" style="text;strokeColor=none;fillColor=none;align=left;verticalAlign=top;spacingLeft=4;spacingRight=4;overflow=hidden;rotatable=0;points=[[0,0.5],[1,0.5]];portConstraint=eastwest;whiteSpace=wrap;html=1;" vertex="1" parent="UCRHAYrMpuW72DWXuycs-14">
          <mxGeometry y="26" width="220" height="44" as="geometry" />
        </mxCell>
        <mxCell id="UCRHAYrMpuW72DWXuycs-17" value="- content: CommentContent" style="text;strokeColor=none;fillColor=none;align=left;verticalAlign=top;spacingLeft=4;spacingRight=4;overflow=hidden;rotatable=0;points=[[0,0.5],[1,0.5]];portConstraint=eastwest;whiteSpace=wrap;html=1;" vertex="1" parent="UCRHAYrMpuW72DWXuycs-14">
          <mxGeometry y="70" width="220" height="44" as="geometry" />
        </mxCell>
        <mxCell id="UCRHAYrMpuW72DWXuycs-16" value="" style="line;strokeWidth=1;fillColor=none;align=left;verticalAlign=middle;spacingTop=-1;spacingLeft=3;spacingRight=3;rotatable=0;labelPosition=right;points=[];portConstraint=eastwest;strokeColor=inherit;" vertex="1" parent="UCRHAYrMpuW72DWXuycs-14">
          <mxGeometry y="114" width="220" height="8" as="geometry" />
        </mxCell>
        <mxCell id="UCRHAYrMpuW72DWXuycs-19" value="- commenter: CommenterInfo" style="text;strokeColor=none;fillColor=none;align=left;verticalAlign=top;spacingLeft=4;spacingRight=4;overflow=hidden;rotatable=0;points=[[0,0.5],[1,0.5]];portConstraint=eastwest;whiteSpace=wrap;html=1;" vertex="1" parent="UCRHAYrMpuW72DWXuycs-14">
          <mxGeometry y="122" width="220" height="44" as="geometry" />
        </mxCell>
        <mxCell id="UCRHAYrMpuW72DWXuycs-20" value="" style="edgeStyle=orthogonalEdgeStyle;rounded=0;orthogonalLoop=1;jettySize=auto;html=1;fontSize=12;startSize=8;endSize=8;exitX=1.005;exitY=0.301;exitDx=0;exitDy=0;exitPerimeter=0;entryX=-0.025;entryY=0.202;entryDx=0;entryDy=0;entryPerimeter=0;" edge="1" parent="1" source="UCRHAYrMpuW72DWXuycs-15" target="UCRHAYrMpuW72DWXuycs-4">
          <mxGeometry relative="1" as="geometry" />
        </mxCell>
        <mxCell id="UCRHAYrMpuW72DWXuycs-21" style="edgeStyle=none;curved=1;rounded=0;orthogonalLoop=1;jettySize=auto;html=1;entryX=0;entryY=0.125;entryDx=0;entryDy=0;entryPerimeter=0;fontSize=12;startSize=8;endSize=8;" edge="1" parent="1" source="UCRHAYrMpuW72DWXuycs-17" target="UCRHAYrMpuW72DWXuycs-11">
          <mxGeometry relative="1" as="geometry" />
        </mxCell>
        <mxCell id="UCRHAYrMpuW72DWXuycs-22" value="CommentFactory&lt;span style=&quot;white-space: pre;&quot;&gt;&#x9;&lt;/span&gt;" style="swimlane;fontStyle=1;align=center;verticalAlign=top;childLayout=stackLayout;horizontal=1;startSize=26;horizontalStack=0;resizeParent=1;resizeParentMax=0;resizeLast=0;collapsible=1;marginBottom=0;whiteSpace=wrap;html=1;" vertex="1" parent="1">
          <mxGeometry x="180" y="540" width="220" height="86" as="geometry" />
        </mxCell>
        <mxCell id="UCRHAYrMpuW72DWXuycs-23" value="- pool: map&amp;lt;string, CommenterInfo&amp;gt;" style="text;strokeColor=none;fillColor=none;align=left;verticalAlign=top;spacingLeft=4;spacingRight=4;overflow=hidden;rotatable=0;points=[[0,0.5],[1,0.5]];portConstraint=eastwest;whiteSpace=wrap;html=1;" vertex="1" parent="UCRHAYrMpuW72DWXuycs-22">
          <mxGeometry y="26" width="220" height="26" as="geometry" />
        </mxCell>
        <mxCell id="UCRHAYrMpuW72DWXuycs-24" value="" style="line;strokeWidth=1;fillColor=none;align=left;verticalAlign=middle;spacingTop=-1;spacingLeft=3;spacingRight=3;rotatable=0;labelPosition=right;points=[];portConstraint=eastwest;strokeColor=inherit;" vertex="1" parent="UCRHAYrMpuW72DWXuycs-22">
          <mxGeometry y="52" width="220" height="8" as="geometry" />
        </mxCell>
        <mxCell id="UCRHAYrMpuW72DWXuycs-25" value="+ get(CommenterInfo): CommenterInfo" style="text;strokeColor=none;fillColor=none;align=left;verticalAlign=top;spacingLeft=4;spacingRight=4;overflow=hidden;rotatable=0;points=[[0,0.5],[1,0.5]];portConstraint=eastwest;whiteSpace=wrap;html=1;" vertex="1" parent="UCRHAYrMpuW72DWXuycs-22">
          <mxGeometry y="60" width="220" height="26" as="geometry" />
        </mxCell>
        <mxCell id="UCRHAYrMpuW72DWXuycs-27" value="" style="endArrow=open;html=1;endSize=12;startArrow=diamondThin;startSize=14;startFill=0;align=left;verticalAlign=bottom;rounded=0;fontSize=12;entryX=0.459;entryY=0.915;entryDx=0;entryDy=0;entryPerimeter=0;" edge="1" parent="1" target="UCRHAYrMpuW72DWXuycs-19">
          <mxGeometry x="-1" y="3" relative="1" as="geometry">
            <mxPoint x="281" y="540" as="sourcePoint" />
            <mxPoint x="530" y="460" as="targetPoint" />
          </mxGeometry>
        </mxCell>
        <mxCell id="UCRHAYrMpuW72DWXuycs-28" value="CommentManager" style="swimlane;fontStyle=1;align=center;verticalAlign=top;childLayout=stackLayout;horizontal=1;startSize=26;horizontalStack=0;resizeParent=1;resizeParentMax=0;resizeLast=0;collapsible=1;marginBottom=0;whiteSpace=wrap;html=1;" vertex="1" parent="1">
          <mxGeometry x="580" y="530" width="170" height="150" as="geometry" />
        </mxCell>
        <mxCell id="UCRHAYrMpuW72DWXuycs-32" value="comments: vector&amp;lt;comment&amp;gt;" style="text;strokeColor=none;fillColor=none;align=left;verticalAlign=top;spacingLeft=4;spacingRight=4;overflow=hidden;rotatable=0;points=[[0,0.5],[1,0.5]];portConstraint=eastwest;whiteSpace=wrap;html=1;" vertex="1" parent="UCRHAYrMpuW72DWXuycs-28">
          <mxGeometry y="26" width="170" height="32" as="geometry" />
        </mxCell>
        <mxCell id="UCRHAYrMpuW72DWXuycs-29" value="- factory: CommenterFactory" style="text;strokeColor=none;fillColor=none;align=left;verticalAlign=top;spacingLeft=4;spacingRight=4;overflow=hidden;rotatable=0;points=[[0,0.5],[1,0.5]];portConstraint=eastwest;whiteSpace=wrap;html=1;" vertex="1" parent="UCRHAYrMpuW72DWXuycs-28">
          <mxGeometry y="58" width="170" height="32" as="geometry" />
        </mxCell>
        <mxCell id="UCRHAYrMpuW72DWXuycs-30" value="" style="line;strokeWidth=1;fillColor=none;align=left;verticalAlign=middle;spacingTop=-1;spacingLeft=3;spacingRight=3;rotatable=0;labelPosition=right;points=[];portConstraint=eastwest;strokeColor=inherit;" vertex="1" parent="UCRHAYrMpuW72DWXuycs-28">
          <mxGeometry y="90" width="170" height="8" as="geometry" />
        </mxCell>
        <mxCell id="UCRHAYrMpuW72DWXuycs-31" value="+ add(authorName, avatarUrl, profileUrl, text): void&amp;nbsp;" style="text;strokeColor=none;fillColor=none;align=left;verticalAlign=top;spacingLeft=4;spacingRight=4;overflow=hidden;rotatable=0;points=[[0,0.5],[1,0.5]];portConstraint=eastwest;whiteSpace=wrap;html=1;" vertex="1" parent="UCRHAYrMpuW72DWXuycs-28">
          <mxGeometry y="98" width="170" height="52" as="geometry" />
        </mxCell>
        <mxCell id="UCRHAYrMpuW72DWXuycs-33" style="edgeStyle=orthogonalEdgeStyle;rounded=0;orthogonalLoop=1;jettySize=auto;html=1;entryX=1;entryY=0.5;entryDx=0;entryDy=0;fontSize=12;startSize=8;endSize=8;exitX=0;exitY=0.5;exitDx=0;exitDy=0;" edge="1" parent="1" source="UCRHAYrMpuW72DWXuycs-32" target="UCRHAYrMpuW72DWXuycs-19">
          <mxGeometry relative="1" as="geometry" />
        </mxCell>
        <mxCell id="UCRHAYrMpuW72DWXuycs-34" style="edgeStyle=none;curved=1;rounded=0;orthogonalLoop=1;jettySize=auto;html=1;entryX=1.005;entryY=0.048;entryDx=0;entryDy=0;entryPerimeter=0;fontSize=12;startSize=8;endSize=8;" edge="1" parent="1" source="UCRHAYrMpuW72DWXuycs-29" target="UCRHAYrMpuW72DWXuycs-25">
          <mxGeometry relative="1" as="geometry" />
        </mxCell>
      </root>
    </mxGraphModel>
  </diagram>
  <diagram id="I03Svg7qXNfMzcHS1UZ0" name="Page-2">
    <mxGraphModel dx="1003" dy="984" grid="0" gridSize="10" guides="1" tooltips="1" connect="1" arrows="1" fold="1" page="0" pageScale="1" pageWidth="850" pageHeight="1100" math="0" shadow="0">
      <root>
        <mxCell id="0" />
        <mxCell id="1" parent="0" />
        <mxCell id="nycpIZUQMywafep1tmk9-5" value="&lt;b&gt;Client&lt;/b&gt;" style="html=1;whiteSpace=wrap;" vertex="1" parent="1">
          <mxGeometry x="636" y="-290" width="110" height="50" as="geometry" />
        </mxCell>
        <mxCell id="nycpIZUQMywafep1tmk9-6" value="Context" style="swimlane;fontStyle=1;align=center;verticalAlign=top;childLayout=stackLayout;horizontal=1;startSize=26;horizontalStack=0;resizeParent=1;resizeParentMax=0;resizeLast=0;collapsible=1;marginBottom=0;whiteSpace=wrap;html=1;" vertex="1" parent="1">
          <mxGeometry x="613" y="-169" width="157" height="145" as="geometry" />
        </mxCell>
        <mxCell id="nycpIZUQMywafep1tmk9-7" value="- uniqueState" style="text;strokeColor=none;fillColor=none;align=left;verticalAlign=top;spacingLeft=4;spacingRight=4;overflow=hidden;rotatable=0;points=[[0,0.5],[1,0.5]];portConstraint=eastwest;whiteSpace=wrap;html=1;" vertex="1" parent="nycpIZUQMywafep1tmk9-6">
          <mxGeometry y="26" width="157" height="26" as="geometry" />
        </mxCell>
        <mxCell id="b54nly2f3YM-wM_lWl_z-1" value="- flyweight" style="text;strokeColor=none;fillColor=none;align=left;verticalAlign=top;spacingLeft=4;spacingRight=4;overflow=hidden;rotatable=0;points=[[0,0.5],[1,0.5]];portConstraint=eastwest;whiteSpace=wrap;html=1;" vertex="1" parent="nycpIZUQMywafep1tmk9-6">
          <mxGeometry y="52" width="157" height="26" as="geometry" />
        </mxCell>
        <mxCell id="nycpIZUQMywafep1tmk9-8" value="" style="line;strokeWidth=1;fillColor=none;align=left;verticalAlign=middle;spacingTop=-1;spacingLeft=3;spacingRight=3;rotatable=0;labelPosition=right;points=[];portConstraint=eastwest;strokeColor=inherit;" vertex="1" parent="nycpIZUQMywafep1tmk9-6">
          <mxGeometry y="78" width="157" height="8" as="geometry" />
        </mxCell>
        <mxCell id="nycpIZUQMywafep1tmk9-9" value="+ Context(repeatingState, uniqueState)" style="text;strokeColor=none;fillColor=none;align=left;verticalAlign=top;spacingLeft=4;spacingRight=4;overflow=hidden;rotatable=0;points=[[0,0.5],[1,0.5]];portConstraint=eastwest;whiteSpace=wrap;html=1;" vertex="1" parent="nycpIZUQMywafep1tmk9-6">
          <mxGeometry y="86" width="157" height="36" as="geometry" />
        </mxCell>
        <mxCell id="b54nly2f3YM-wM_lWl_z-25" value="+ operation()" style="text;strokeColor=none;fillColor=none;align=left;verticalAlign=top;spacingLeft=4;spacingRight=4;overflow=hidden;rotatable=0;points=[[0,0.5],[1,0.5]];portConstraint=eastwest;whiteSpace=wrap;html=1;" vertex="1" parent="nycpIZUQMywafep1tmk9-6">
          <mxGeometry y="122" width="157" height="23" as="geometry" />
        </mxCell>
        <mxCell id="b54nly2f3YM-wM_lWl_z-2" value="" style="endArrow=open;html=1;endSize=12;startArrow=diamondThin;startSize=14;startFill=1;align=left;verticalAlign=bottom;rounded=0;fontSize=12;exitX=0.553;exitY=0.972;exitDx=0;exitDy=0;exitPerimeter=0;" edge="1" parent="1" source="nycpIZUQMywafep1tmk9-5">
          <mxGeometry x="-1" y="3" relative="1" as="geometry">
            <mxPoint x="414" y="-218" as="sourcePoint" />
            <mxPoint x="697" y="-171" as="targetPoint" />
            <mxPoint as="offset" />
          </mxGeometry>
        </mxCell>
        <mxCell id="b54nly2f3YM-wM_lWl_z-5" value="FlyweightFactory" style="swimlane;fontStyle=1;align=center;verticalAlign=top;childLayout=stackLayout;horizontal=1;startSize=26;horizontalStack=0;resizeParent=1;resizeParentMax=0;resizeLast=0;collapsible=1;marginBottom=0;whiteSpace=wrap;html=1;" vertex="1" parent="1">
          <mxGeometry x="354" y="-260" width="192" height="86" as="geometry" />
        </mxCell>
        <mxCell id="b54nly2f3YM-wM_lWl_z-6" value="- cache: Flyweight[]" style="text;strokeColor=none;fillColor=none;align=left;verticalAlign=top;spacingLeft=4;spacingRight=4;overflow=hidden;rotatable=0;points=[[0,0.5],[1,0.5]];portConstraint=eastwest;whiteSpace=wrap;html=1;" vertex="1" parent="b54nly2f3YM-wM_lWl_z-5">
          <mxGeometry y="26" width="192" height="26" as="geometry" />
        </mxCell>
        <mxCell id="b54nly2f3YM-wM_lWl_z-7" value="" style="line;strokeWidth=1;fillColor=none;align=left;verticalAlign=middle;spacingTop=-1;spacingLeft=3;spacingRight=3;rotatable=0;labelPosition=right;points=[];portConstraint=eastwest;strokeColor=inherit;" vertex="1" parent="b54nly2f3YM-wM_lWl_z-5">
          <mxGeometry y="52" width="192" height="8" as="geometry" />
        </mxCell>
        <mxCell id="b54nly2f3YM-wM_lWl_z-8" value="+ getFlyweight(repeatingState)" style="text;strokeColor=none;fillColor=none;align=left;verticalAlign=top;spacingLeft=4;spacingRight=4;overflow=hidden;rotatable=0;points=[[0,0.5],[1,0.5]];portConstraint=eastwest;whiteSpace=wrap;html=1;" vertex="1" parent="b54nly2f3YM-wM_lWl_z-5">
          <mxGeometry y="60" width="192" height="26" as="geometry" />
        </mxCell>
        <mxCell id="b54nly2f3YM-wM_lWl_z-9" style="edgeStyle=none;curved=1;rounded=0;orthogonalLoop=1;jettySize=auto;html=1;entryX=1;entryY=0.5;entryDx=0;entryDy=0;fontSize=12;startSize=8;endSize=8;" edge="1" parent="b54nly2f3YM-wM_lWl_z-5" source="b54nly2f3YM-wM_lWl_z-8" target="b54nly2f3YM-wM_lWl_z-8">
          <mxGeometry relative="1" as="geometry" />
        </mxCell>
        <mxCell id="b54nly2f3YM-wM_lWl_z-10" style="edgeStyle=none;curved=1;rounded=0;orthogonalLoop=1;jettySize=auto;html=1;exitX=1;exitY=0.5;exitDx=0;exitDy=0;fontSize=12;startSize=8;endSize=8;" edge="1" parent="b54nly2f3YM-wM_lWl_z-5" source="b54nly2f3YM-wM_lWl_z-8" target="b54nly2f3YM-wM_lWl_z-8">
          <mxGeometry relative="1" as="geometry" />
        </mxCell>
        <mxCell id="b54nly2f3YM-wM_lWl_z-11" value="Flyweight" style="swimlane;fontStyle=1;align=center;verticalAlign=top;childLayout=stackLayout;horizontal=1;startSize=26;horizontalStack=0;resizeParent=1;resizeParentMax=0;resizeLast=0;collapsible=1;marginBottom=0;whiteSpace=wrap;html=1;" vertex="1" parent="1">
          <mxGeometry x="370" y="-31" width="160" height="78" as="geometry" />
        </mxCell>
        <mxCell id="b54nly2f3YM-wM_lWl_z-12" value="- repeatingState" style="text;strokeColor=none;fillColor=none;align=left;verticalAlign=top;spacingLeft=4;spacingRight=4;overflow=hidden;rotatable=0;points=[[0,0.5],[1,0.5]];portConstraint=eastwest;whiteSpace=wrap;html=1;" vertex="1" parent="b54nly2f3YM-wM_lWl_z-11">
          <mxGeometry y="26" width="160" height="26" as="geometry" />
        </mxCell>
        <mxCell id="b54nly2f3YM-wM_lWl_z-28" value="+ operation(UniqueState)" style="text;strokeColor=none;fillColor=none;align=left;verticalAlign=top;spacingLeft=4;spacingRight=4;overflow=hidden;rotatable=0;points=[[0,0.5],[1,0.5]];portConstraint=eastwest;whiteSpace=wrap;html=1;" vertex="1" parent="b54nly2f3YM-wM_lWl_z-11">
          <mxGeometry y="52" width="160" height="26" as="geometry" />
        </mxCell>
        <mxCell id="b54nly2f3YM-wM_lWl_z-15" value="" style="endArrow=open;html=1;endSize=12;startArrow=diamondThin;startSize=14;startFill=0;align=left;verticalAlign=bottom;rounded=0;fontSize=12;exitX=0.459;exitY=1.028;exitDx=0;exitDy=0;exitPerimeter=0;entryX=0.451;entryY=0;entryDx=0;entryDy=0;entryPerimeter=0;" edge="1" parent="1" source="b54nly2f3YM-wM_lWl_z-8" target="b54nly2f3YM-wM_lWl_z-11">
          <mxGeometry x="-1" y="3" relative="1" as="geometry">
            <mxPoint x="450" y="-79" as="sourcePoint" />
            <mxPoint x="610" y="-79" as="targetPoint" />
          </mxGeometry>
        </mxCell>
        <mxCell id="b54nly2f3YM-wM_lWl_z-17" style="edgeStyle=none;curved=1;rounded=0;orthogonalLoop=1;jettySize=auto;html=1;exitX=0;exitY=0.5;exitDx=0;exitDy=0;entryX=1.01;entryY=1;entryDx=0;entryDy=0;entryPerimeter=0;fontSize=12;startSize=8;endSize=8;" edge="1" parent="1" source="nycpIZUQMywafep1tmk9-7" target="b54nly2f3YM-wM_lWl_z-8">
          <mxGeometry relative="1" as="geometry" />
        </mxCell>
        <mxCell id="b54nly2f3YM-wM_lWl_z-19" style="rounded=0;orthogonalLoop=1;jettySize=auto;html=1;entryX=0.997;entryY=-0.09;entryDx=0;entryDy=0;entryPerimeter=0;fontSize=12;startSize=8;endSize=8;exitX=0;exitY=0.5;exitDx=0;exitDy=0;" edge="1" parent="1" source="b54nly2f3YM-wM_lWl_z-1" target="b54nly2f3YM-wM_lWl_z-12">
          <mxGeometry relative="1" as="geometry" />
        </mxCell>
      </root>
    </mxGraphModel>
  </diagram>
</mxfile>
